<?xml version="1.0" encoding="UTF-8"?><svg id="Layer_1" xmlns="http://www.w3.org/2000/svg" xmlns:xlink="http://www.w3.org/1999/xlink" viewBox="0 0 996 996"><defs><style>.cls-1{fill:#f8f9d2;}.cls-2{fill:#01192f;}.cls-3{fill:#feb600;}.cls-4{fill:none;}.cls-5{fill:#061c2a;}.cls-6{fill:#516f8b;}.cls-7{clip-path:url(#clippath);}</style><clipPath id="clippath"><circle class="cls-4" cx="503" cy="510.75" r="482"/></clipPath></defs><g class="cls-7"><rect class="cls-3" width="996" height="996"/><path class="cls-2" d="M447.75,442.5l1.71,2.11c7.27,60.07,94.9,63.54,106.76,4.23l1.78-1.84c.15-1.12.5-2.05,1.04-2.79,2.29-1.56,17.6,6.77,20.47,8.42,3.78-.15,5.91.93,6.38,3.23,4.44-.52,7.21.54,8.3,3.16,2.9.44,5.29,1.47,7.19,3.08,1.39-.24,13.7,4.37,14.18,4.97,1.4,1.74,1.22,2.68-.54,3.96l2.1-.11c3.83-1.68,6.01-1.29,6.54,1.17,3.82.95,7.51,2.38,11.08,4.28-.12,2.33,2.48,3.68,4.62,2.53,6.27,3.91,10.05,10.41,12.94,17.35,7.67,18.47,15.19,37.49,21.69,56.09-.95,1.65-.71,2.11.73,1.36.56.37,4.55,10.78,5.04,12.39,1.44,4.74-2.14,4.28-1.84,4.28,2.72-.92,4.39.34,5.03,3.78.91,4.96,2.77,9.2,5.57,12.72,3.69.41,5.25,2.67,6.85,5.79,1.19,2.31,6.85,18.15,6.42,20.16-1.12,5.27-4.53,5.81-7.39,6.22l-1.4.47c.67.15.65.4,0,.75-11.64,6.12-23.94,11.23-36.89,15.34l-1.36-1.09-1.49-1.05.3-16.64c-.71-8.57-3.21-15.62-12.65-17.35l-1.16-1.71-1.59-.75.26-32.15c.18-6.74-1.37-8.67-4.64-5.78l-.03,37.05-1.5.88c-.17,1.45-1.3,2.05-3.4,1.79-72.25.05-144.74-.41-217.45-1.4-12.2.8-24.33.67-36.4-.4l-.76-.23c.15-12.76.11-25.51-.14-38.26-6.72-10.98-9.52,4.42-8.42,11.13l.35,27.23c-1.25.32-2.26.86-3.03,1.62l-.8,1.88c-8.1,2.96-10.58,11.12-10.54,19.05l.77,14.59-1.43,1.23c-.84.11-1.69.19-2.53.16s-1.62-.08-2.36-.31c-8.12-2.57-15.89-6.04-23.62-9.6-.12,1.97-.84,1.87-1.5,0l-1.5-.75c-3.25,1.18-10.05-2.07-11.25-5.25-2.51-1.24-4.63-4.23-4.54-7.1.07-2.26,7.2-19.69,8.73-22.09,2.01-3.15,4.59-3.88,7.87-5.07l37.31-95.26c4.97-9.9,12.93-13.55,22.37-18.13,16.78-8.14,51.17-25.25,67.77-29.36Z"/><path class="cls-1" d="M373.5,597c.17-1.52.92-1.45,1.5,0,82.75-3.97,168.59,3.01,251.66-.04,1.75.77,4.48-.04,5.59.04.56-2.32,7.39-1.6,7.5.75,19.37,2.63,14.99,23.5,15,36.75,1.5,1.26,1.97,3.54,1.4,6.84,12.28-7.11,24.56-14.14,36.85-21.09.06-.21-.02-.49,0-.75.44-1.15,2.61-1.13,3,0l4.89,14.98c8.83,22.69,18.68,45.22,27.18,68.07,5.32,14.29,7.22,21.58,6.21,37.36-.6,9.26-1.57,12.42-7.53,19.09l-.82-2.18c3.51-9.27,0-17.5-4.33-25.53l-.05-15.71c.41-3.06-.79-5.77-2.98-3.06l.06,18.25c.18,6.37-6.52,8.13-11.2,4.77-1.67-1.2-3.11-2.73-.93-3.93-.58-.07-1.45-.25-1.5-.68-.36-3.19-.54-16.39,0-19.23l1.5-1.1c-2.44-.28-4.16.14-5.17,1.25l-.47,40.79c-7.44,10.4-15.86-.44-13.39-10.67l.77-22.54c.4-4.69-.88-13.33-5.02-6.41.75,7.54,3.44,36.85-1.29,41.36-3.93,3.75-10.73,2.76-11.35-2.47-.89-7.5-.63-17.31,1.42-24.43-1.53-1.62-2.19-4.03-1.97-7.23-4.8-15.44-10.12-31.19-15.96-47.26-.28,22.29-1.01,46.23-3.82,69.49l1.45,1.17c-.84,4.43-.96,8.79-.37,13.08l-1.08,1.51c-.27,2.76-.72,5.61-1.32,8.55l-1.68,1.2c.65.21.65.46,0,.75-.42,1.44-1.08,1.44-1.5,0-2.8-.29-5.55-.54-8.25-.75-2.2,0-2.1-2.51,0-3-.67-.14-.64-.39,0-.75-2.8-.71-.17-6.2.75-7.88-.44-.07-.78-.14-.78-.23-.21-3.96.13-9.83.78-13.27-1.81-4.16-.58-9.46.75-13.88-2.15-.64-1.82-1.15,0-2.25-.24-1.2.01-1.95.75-2.25-2.08-1.21-2.11-3.3,0-4.5-.46-15.68.51-31.72,2.25-47.25-1.43-.42-1.43-1.08,0-1.5-.9-2.02-.9-4.27,0-6.75-1.8-1.15-1.03-3.71.75-4.5-.69-6.9-.89-14.31.75-21-.4-.32-.4-.82,0-1.5-.75-4.25-.54-9.39.75-13.5-.37-.31-.37-.81,0-1.5l-.69-.51c1.01-7-4.03-12.99-11.1-12.26-87.19-.35-174.35-.35-261.48,0-9.66,1.28-9.22,10.16-8.06,17.94l.11,13.72-.77.62c2.29.79,2.94,5.52.75,6.75,1.33,2.05,1.28,6.18,0,8.25,2.12.95,2.08,2.78,0,3.75,1.56,1.59,1.11,4.58.75,6.75,2.36,1.85,2.18,7.03,0,9,1.15,3.05,1.5,6.21,1.65,9.44.49,11.19,1.08,22.27,1.8,33.44.21,3.22.1,6.43-.45,9.62,2.31,1.51,2.16,5.88,0,7.5,2.3,8.81,2.54,18.76,1.5,27.75,3.44,1.13,2.72,4.72-1.5,4.5-1.21,1.46-2.55,1.47-3.75,0h-1.5c-.42,1.43-1.08,1.44-1.5,0l-1.99-1.36c-1.15-3.07-2.14-8.28-1.76-11.39-2.31.09-1.99-5.34-1.61-7.1.04-.21,1.24-3.04,1.61-3.4l-.99-2.34c-.98-23.7-2.25-47.09-3.8-70.16-6.64,15.25-11.85,31-15.62,47.25.18,3.32-.52,5.98-2.09,8,.37.05.72.14.99.33,1.03.72,1.23,22.54-.13,24.84-4.59,7.8-14.91,1.21-13.28-7.12-.03-8.46.2-16.92.7-25.37.47-4.81.05-15.41-4.81-7.83,1.09,10.31,2.11,22.71,1.02,33.07-.66,6.25-1.87,12.36-9.94,9.97-2.02-.6-5.35-2.51-3.05-4.27l-1.5-.69v-40.05l1.5-.89-1.17.95c-3.71-1.62-4.44.59-4.34,4.07l.36,12.75c.61,13.09-14.36,12.11-13.74-.76.5-.66.83-23.12-2.47-14.68.3,6.87.19,13.68-.33,20.41-4.96,7.26-6.99,15.43-3.68,24.01l-.89,2c-.16-.15-1.21-.18-1.88-.72-2.59-2.06-4.94-7.1-5.44-10.34-.88-5.65-1.02-26.19.53-31.36,9.09-30.39,27.09-61.85,35.53-91.97.48-1.7.68-3.35.51-5.11,3.33,1.64,7.68,3.64,11.25,5.25l1.5.75c.43.12,1.09-.12,1.5,0,9.64,3.78,18.51,9.14,27.33,14.52-.63-2.26-.24-3.85,1.17-4.77-.72-13.14-4.37-31.46,12-36.75,1.09-1.06,3.4-2.64,3.75-.75.29-2.34,5.71-2.93,6.75-.75Z"/><path class="cls-5" d="M279,759c-2.55-6.94-3.17-12.63-.58-19.71,1-2.75,3.92-6.16,4.29-8.46.84-5.24-1.82-15.31-.16-18.9,1.11-2.4,4.47-2.96,5.33-.43,1.8,5.29-3.84,24.88,5.74,24.32,2.01-.12,4.31-1.54,4.71-3.59.97-5.01-1.05-17.94.55-21.24s6.38-1.11,6.38-.75v41.62c0,2.1,8.61,6.41,10.75-.5,1.7-5.49.65-26.89.53-34.03-.03-1.56-.9-3.25-.79-4.46.34-3.59,6.46-6.19,7.49-.74,1.22,11.89-1.55,26.76-.02,38.27.74,5.57,8.42,6.34,10.04,2.41,1.49-3.62.38-19.37.5-24.57,1.47-3.77,8.16.69,10.55,2.48,3.56,2.65,11.35,9.06,10.45,13.27q-1.43,1.96,0,0c.65-.81,1.15-.31,1.5,1.5-.03,3.03-.44,7.76,0,10.5.89,3.97-3.93,8.77-6.99,11.19,3.67-.06,7.33.02,10.74,1.56.5,0,1,0,1.5,0h1.5c1.25,0,2.5,0,3.75,0,1.05.04,1.78-.49,2.27-1.48,18.14,1.17,36.16,1.08,54.04-.29l-.22-1.23h-53.7s-.9-1.5-.9-1.5c-.36-9.27-1.04-18.5-1.5-27.75.19-2.4,2.54-1.93,3.57.08l1.06,22.42,40.94-.04c1.1.13,1.76.79,2.35,1.65l14.18-.5c3.09-.02,7.7.19,9.19,2.74,1.64-2.56,5.78-4.69,8.57-3.06l.79-.6c59.65-.39,119.33-.43,179.03-.1,1.76,1.49,5.22,2.28,7.31,1.33,3.19-1.45,1.36-21.75.9-25.98.03-1.1,2.63-6.49,4.36-5.44.16,4.79-.75,9.78-.75,13.88v13.5c0,1.84-.76,5.1-.75,7.88-2.17.67-5.12.61-7.5,0-63.39,1.52-126.12,2.04-188.19,1.56-.04.06.27,1.25.34,1.25,53.61.21,107.23.33,160.85.24,10.76.04,21.51.73,32.25,1.44,3.47-.62,7.03-.66,10.5,0,.5,0,1,0,1.5,0,4.43-.31,7.98-.53,10.65-.66l-.15-.84c-4.06,1.08-8.51-5.67-7.5-9-1.96-5.1-.13-10.83,0-15.75.95-5.13,16.35-17.37,20.32-16.33.65.17,1.07.78,1.43,1.33.2,7.69-.21,15.42-.25,23.09,1.71,7.13,10.08,6.05,10.79-1.68.84-9.27.16-21.97,0-31.57-.03-1.56-.9-3.25-.79-4.46.35-3.71,6.71-6.43,7.54-.05,1.51,11.55-1.23,26.35-.02,38.27,1.58,4.39,7,5.72,10.11,1.9l.52-41.48c1.07-3.54,6.61-2.58,6.61-.89v21c0,3.4,8.1,6.13,10.13,1.88,1.66-3.48-1.04-21.77,1.23-23.14.49-.3,3.8-.3,4.29,0,1.84,1.12.23,17.62,1.01,21.11.37,1.63,2.56,4.19,3.41,6.34,2.95,7.45,3.05,13.68.18,21.19-1.66,1.85-3.43,3.93-5.24,5.63-1.57,1.47-4.66,2.06-4.51,4.12h58.88c.81,0,6.31,3.3,7.03,4.22,5.21,6.66,1.7,18.06-6.63,20.18l-545.67.37c-9.18-1.83-13.27-13.32-6.99-20.53.78-.9,5.57-4.24,6.26-4.24h57c.11,0,1.98-.91,1.87-1.12-3.93-2.21-6.42-5.67-9.75-8.63Z"/><path class="cls-5" d="M757.99,292.76c28,26.03,18.26,75.88-18.71,87.63-47.52,15.1-87.15-34.58-60.83-76.58,16.93-27.02,55.95-32.98,79.55-11.05Z"/><path class="cls-5" d="M758.1,408.22c69.36-7.14,75.91,93.36,11.02,98.77-66,5.5-73.6-92.33-11.02-98.77Z"/><path class="cls-5" d="M308.69,289.83c31.53,27.17,20.24,79.2-19.35,90.63-41.5,11.98-77.99-25.97-65.43-66.93,10.91-35.57,56.61-47.98,84.79-23.7Z"/><path class="cls-5" d="M393.31,193.19c41.75,43.81-21.73,107.03-65.25,67.48-47.28-42.97,20.88-114.04,65.25-67.48Z"/><path class="cls-5" d="M210,489l-5.4,9.98-4.72,6.52c-2.44-1.13-6.1-14.47-8.07-16.31-1.05-.98-4.49-.99-6.23-1.65-3.17-1.21-6.98-5.52-7.67-8.83-.82-3.99-.77-33.24.18-36.98,2.23-8.75,11.21-9.35,18.74-9.76,21.88-1.21,54.13-1.56,75.81,0,8.91.65,15.25,3.3,16.13,13.12.65,7.31.85,24.46-.01,31.55-.49,4.03-4.21,9.15-7.97,10.78-2.6,1.13-7.28,1.03-8.98,2.27-1.97,1.44-7.3,9.48-9.69,12.06-.92,1-5.39,5.72-6.02,5.98-1.53.64-1.05-1.04-1.11-1.86-.41-5.58.11-11.31-.75-16.89h-44.25Z"/><path class="cls-5" d="M239.07,537.95c28.05-3.98,24.79,24.59,31.47,40.89,4.62,11.29,11.85,14.88,6.8,29.62-10.24,29.89-59.17,29.8-68.87-.55-4.97-15.53,2.53-17.96,7.37-29.46,5.82-13.83,2.54-37.57,23.24-40.51Z"/><path class="cls-1" d="M462.75,435.75l1-.15c15.62,33.21,58.12,39.42,75.55,3.75l2.19-1.35c7.35.86,10.05,2.81,16.5,4.5,2.1.84,2.1,2.34,0,4.5-2.42,19.55-16.35,36.4-34.86,42.76-35.31,12.13-72.52-9.31-75.39-47.26,5.67-1.4,9.23-3.45,14.25-6.75.21-.65.46-.65.75,0Z"/><path class="cls-5" d="M568.93,241.82c11.29,9.86,20.77,23.73,25.26,38.11,1.4,4.49,5.52,15.46-.91,17.49-8.99,2.84-8.66-9.04-10.7-14.87-24.5-69.96-132.69-71.5-158.44-2.03-1.62,4.38-2.43,16.1-6.94,17.08-13.68,3-5.01-19.47-2.59-25.11,25.52-59.48,106.9-72.09,154.32-30.67Z"/><path class="cls-6" d="M528.75,433.5c.24-2.43,1.12-1.69,2.25,0,1.88,3.39,7.14,4.11,10.5,4.5-12.18,30.87-51.13,36.88-71.55,9.67-1.83-2.44-6.38-9.36-7.2-11.92-.26-1.36-.51-2.86-.75-4.5,0-1.91.2-4.18,0-6-.1-2.06-.08-2.24,1.5-.75.85-1.6,2.36-1.45,4.52.45,15.84,14.31,39.63,18.2,58.58,7.69.49,1.09,1.18,1.19,2.15.87Z"/><path class="cls-5" d="M462,425.25c-.54-4.84-5.8-8.77-8.56-12.82-5.83-8.55-10.53-18.18-12.44-28.43h-16.88c-.08,0-1.12-1.05-1.12-1.12v-81.38c1.99-.42,8.45.64,9.64-.1.72-.45,1.76-13.83,2.45-16.67,3.01-12.23,11.95-24.58,21.72-32.28,42.81-33.76,117.06-9.47,116.19,49.06h10.5l-1.12,82.5h-17.62c-1.41,6.47-6.06,20.72-10.76,25.24-4.91,4.73-17.11-2.36-23.17,7.2-1.24,1.95-2.63,5.26-2.57,7.57.04,1.29,2.11,8.33,2.75,9.49-.69.11-1.65-.16-2.25,0-1.02.3-1.62.38-2.64-.09-.5-.23-2.5-10.19-2.44-10.74.04-.41,2.97-6.89,3.3-7.43,3.87-6.43,6.73-8.51,14.45-7.13,1.68-2.08,3.76-2.44,5.18-.04,3.49.46,5.47-2.77,7.09-5.51,1.74-2.94,4.25-7.54,4.7-10.56-1.02-4.44-.13-6.56,2.69-6.35,0-4.43,1.97-6.87,6.54-6.4l12.73.56c-.84-24.82-1.07-50.19-.43-74.73-3.63-.07-6.87-.72-9.74-1.94-.86-14.06-3.81-26.24-12.92-37.7-3.4.71-3.93-1.42-4.06-4.27-2.98.61-4.54-1.35-4.7-5.88-3.7-.63-8.16-3.18-10.32-6.39l-2.34-.44c-4.14.91-6.19.09-6.16-2.48-2.13-.32-4.13-1.17-5.15-3.19-8.53-1.58-17.08-2.07-25.65-1.46-1.55,2.09-3.95,2.61-5.12.09-7.69,1.52-15.27,3.56-22.75,6.1q-1.79,1.24,0,0c5-1.9,10.78-3.76,10.54,3.96-.14,4.3-7.4,9.05-10.54,5.79-1.93-1.2-.57-2.39,1.08-3.33,3.44-.28,7.22-5.53,1.97-3.56-12.03,4.5-25.26,16.32-29.66,28.5-.45,1.24-.36,4.8,1.53,3.3,3.18-6.91,6.4-13.08,12.1-18.43,3.08-2.89,9.02-8.39,12.99-6.47,3.9,1.97.07,4.13-3.16,3.95l-7.08,7.82c-4.46,2.78-6.57,5.29-8.04,10.45,2.56,3.45,1.15,5.23-2.84,5.2-2.08,2.03-4.16,3-6.24,2.9,1.69,5.55-1.06,5.95-5.11,3.28,1.77,10.2-1.2,14.75-8.92,13.64-1.18.86-2.38,1.39-3.59,1.58l.7,72.96c1.39.55,2.69,1.28,3.91,2.19,2.51-3.11,11.04-2.94,12.89,1.21,4.21-.31,5.37,2.75,3.48,9.18l2.58,7.41c4.46-.72,7.31,2.61,2.3,4.59,1.32,2.87,3.33,5.2,6.04,6.98l2.04,4.93c3.37-.02,6.61,7.56,3.54,8.99-.3-.02-1.06.62-1.5.75Z"/><path class="cls-5" d="M651,413.25c-3.93-4.18-10.87-18.34-.38-18.42,5.94-.04,7.79,9.63,10.6,10.11,3.06.53,3.96-10.82,11.84-9.66,9.8,1.44.53,13.28-.32,17.96h10.88c2.55,0,5.21,2.29,5.59,4.93,1.35,9.37-11.1,7.74-17.21,7.83-.86.76,8.81,10.64,4.27,16.28-5.71,7.1-12.52-4.92-15.15-8.77-3.83,3.74-6.44,13.76-13.54,9.77-7.81-4.39,4.21-16.69,3.41-17.28-6.57-.39-20.19,2.04-17.84-8.47.41-1.85,2.98-4.29,4.71-4.29h13.12Z"/><path class="cls-5" d="M605.74,313.76c3.5,3.36,6.35,8.83,6.95,13.67,1.1,8.79,1.01,32.86-3.07,40.31-1.71,3.12-6.63,6.74-7.21,9.29-1.35,5.97.39,16.36-.17,23.08-1.25,14.9-11.82,26.66-26.69,28.81-2.24.32-5.51-.42-7.3.2-1.53.53-1.31,3.11-3.89,3.61-3.51.69-20.03.49-24,.03-6.35-.74-7.68-9.07-4.77-13.8,1.4-2.27,3.82-2.51,6.26-2.74,2.83-.26,23.39-.24,24.42.43,1.37.89-.56,2.14,4,1.76,21.27-1.75,23.49-21.32,19.2-38.49l.04-74.66c5.41,1.67,12.16,4.6,16.23,8.51Z"/><path class="cls-5" d="M417,305.25v76.5c-8.22-.49-17.85-8.69-21.14-15.99-4.05-9-4.31-36.41-.15-45.43,3.55-7.69,12.97-14.05,21.29-15.09Z"/><path class="cls-5" d="M647.09,200.41c5.03-.53,2.51,2.67,2.42,5.48-.4,12.16.46,23.62-.03,35.96-.09,2.25.8,13.72-1.08,13.87-.75.06-12.27-4.65-14.03-5.45-8.92-4.09-17.57-10.57-23.88-18.12-2.23-2.67-3.96-3.76-1.81-7.1,6.38-9.89,26.7-23.41,38.41-24.63Z"/><path class="cls-5" d="M362.37,404.37c-.99,1.56.52,21.43-.16,25.72-.5,3.13-3.22,5.32-6.32,5.68-3.89.46-25.28.55-28.18-.35-2.54-.79-4.17-4.24-4.48-6.77-.73-6.04-.44-18.49-.02-24.8.33-4.86.57-9.42,6.39-10.11,5.45-.64,21.17,1.34,24.71-.82.92-.56,1.03-1.95,2.11-2.41,7.14-3.05,15.38,5.7,9.98,11.53-1.21,1.31-3.91,2.14-4.04,2.33Z"/><path class="cls-5" d="M405.94,190.31c-1.78-1.69-1.79-5.05-.21-6.96,2.27-2.75,30.49-9.48,35.88-10.61,13.49-2.85,30.27-5.59,43.99-6.26,4.36-.21,13.34-1.48,13.91,4.2.78,7.81-13.11,5.89-17.62,6.34-15.76,1.55-31.61,4.25-47.04,7.71-7.08,1.59-17.62,5.92-24.32,6.48-1.39.12-3.54.09-4.58-.9Z"/><path class="cls-5" d="M515.02,166.65c3.85-1.15,19.56.8,24.6,1.36,9.62,1.08,19.46,2.78,28.91,4.84,7.48,1.64,24.8,5.49,31.01,8.74,6.21,3.26,4.04,10.37-2.8,9.6-26.4-8-53.48-13.16-81.09-14.96-4.34-.86-4.36-8.47-.62-9.59Z"/><path class="cls-5" d="M657,203.25c2.27-2.55,27.76,19.73,28.53,24.37.02,3.41-22.87,23.77-28.53,23.63v-13.12c0-.71,9.05-5.7,9.04-10.5-.02-5.71-9.04-10.51-9.04-11.25v-13.12Z"/><path class="cls-5" d="M696,619.5c-.99.08-2.01-.05-3,0,.22-2.65.67-.94,3.14-1.71,3.48-1.1,4.66-2.53,4.93-6.35.24-3.45-1.39-3.19-2.02-4.5-1.51-3.13-2.9-7.49-4.37-11.26-.75-1.9,1.11-3.79-2.43-3.18,2.29-4.95-2.62-3.7-4.35-4.65-.23-.12-3.32-3.44-3.48-3.65-1.12-1.49-1.69-11.39-3.49-12.66-.94-.67-5.25,2.87-4.44-3.04.44-.46,3.58.99,2.98-1.1-1.13-3.98-4-8.08-4.49-12.4-.9-.75-2.78,3.04-4.49,1.49-1.2-1.09,2.13-3.52,2.2-4.82.22-3.95-4.46-11.84-6.1-15.66-3.97-9.26-7.31-18.81-11.03-28.15-2.27-5.69-4.43-12.47-7.59-18.32-.3-.55-1.36-.6-1.72-1.47-.89-2.12.55-4.22-2.77-3.59l.74-1.47c-1.89,1.06-3.87-3.08-4.14-3.06-1.22.07-2.83,2.35-4.84,1.53l1.49-1.48c-.88,0-4.13-.39-4.49-.77-1.46-1.56,2.23-1.4,1.49-2.23-.81-.89-4.28-2.28-5.24-1.51,1.5,2.15,0,4.43-1.5,3-.15-.14.02-3.09-.67-4.06s-5.37-.06-3.83-3.44c-.65-.37-9.92,4.46-9.03-1.14.08-.49,2.46-.03,1.52-1.86-2.93,1.09-6.01-2.86-8.61-3.04-.2-.01-.85,2.7-3.38,1.53l2.25-2.99c-1.51-.17-3.28.3-4.72-.04-.5-.12-.49-1.15-1.15-1.38-1.32-.46-5.41-1.4-6.15-1.97-.92-.71-.37-2.43-1.19-2.67-2.43-.71-6.63,1.54-8.54-1.83l1.49-1.11c-1.74-.3-4.35.11-5.94-.45-3.04-1.07-9.62-5.91-13.1-7.16-2.23-.81-6.74-2.79-7.96.11.17-1.41-.12-3.04,0-4.5,4.03,1.06,7.13,1.86,11.14,3.49,20.31,8.26,45.59,18.89,64.89,28.86,10.9,5.63,14.74,10.67,19.59,21.66,12.77,29.01,21.98,60.48,35.22,89.28,7.21,1.33,10.11,12.78,12.24,19.26,1.94,5.9,3.62,13.77-5.07,14.45Z"/><path class="cls-5" d="M218.07,360.18c3.38,3.37-4.09,19.86-5.45,24.57-1.97,6.87-3.29,15.88-5.59,22.16-1.78,4.87-7.69,5.51-9.29,1.66s2.27-17.21,3.46-21.74c1.11-4.21,7.36-25.09,9.85-26.89,1.51-1.09,5.74-1.04,7.01.23Z"/><path class="cls-5" d="M238.31,645.87c1.69-.3,3.13.16,4.27,1.44,5.56,8.58,11.39,17,17.7,25.05,3.04,3.88,14.8,13.43,8.97,18-2.71,2.12-4.42,1.03-6.76-.72-5.77-4.34-17.3-19.94-21.6-26.4-2.48-3.73-11.93-15.71-2.58-17.37Z"/><path class="cls-5" d="M786.53,358.66c5.4-1.59,6.56,2.31,8.29,6.39,2.77,6.55,10.12,27.35,10.63,33.68.53,6.67-7.36,7.76-9.73,2.18-1.4-10.84-10.1-24.78-11.78-34.71-.44-2.61-.62-6.59,2.6-7.54Z"/><path class="cls-5" d="M195.52,516.15c8.65-2.66,7.62,10.21,8.72,15.74,1,5.07,6.03,24.5,4.89,27.86-.78,2.29-6.35,2.93-8.05.79s-4.08-13.59-4.81-16.94c-1.12-5.09-4.46-20.47-3.17-24.65.32-1.03,1.35-2.48,2.43-2.81Z"/><path class="cls-5" d="M788.62,555c.37.05,2.58.89,2.67,1.22l-.04,75.28h-68.25v-76.5h65.62Z"/><path class="cls-5" d="M766.21,659.72c-3.3,5.52-7.67,10.68-11.71,15.84-2.67,3.42-9.25,12.57-12.71,14.85s-7.72,1.35-8.28-3.11,6.17-9.85,9-13.43c1.36-1.71,2.9-3.42,4.06-4.92,5.4-7,9.76-14.66,15.04-21.73,2.02-1.85,4.93-2.06,7.13-.35,4.16,3.24-.51,9.46-2.53,12.84Z"/><path class="cls-5" d="M716.69,262.81c-6.91-6.97-13.66-14.14-20.29-21.35-1.87-5.3,2.85-9.06,7.48-5.97,3.52,2.35,15.19,14.64,18.39,18.36,2.34,2.73,9.41,10.95,2.44,13-4.52,1.33-5.67-1.66-8.02-4.04Z"/><path class="cls-5" d="M292.81,253.83c-3.36,3.5-9.97,11.77-14.02,13.33-5.61,2.17-8.33-2.94-5.38-7.63,1.05-1.67,7.47-8.33,9.3-10.2,1.44-1.47,10.66-9.92,11.48-10.26,3.73-1.54,7.63-.05,7.38,4.3-.23,4.05-6.26,7.85-8.77,10.46Z"/><path class="cls-5" d="M802.23,515.44c3.57-.36,6.86,3.14,6.22,6.82-1.96,7.28-1.21,18.65-3.88,25.43-1.45,3.69-8.27,3.94-9.4.03-.42-1.46-.24-3.53-.15-5.08.35-5.41,1.97-17.86,3.31-22.93.5-1.88,1.77-4.05,3.91-4.26Z"/><path class="cls-5" d="M653.05,172.74c2.68.87,1.47,7.79,1.71,10.26-5.43-.3-8.6,2.08-8.32-4.88.16-4.07,2.26-6.78,6.62-5.38Z"/><path class="cls-5" d="M704.17,210.08c.52.61-.19,5.31.09,6.67h-8.26c.37-3.97-1.83-7.47,3.4-7.54.79-.01,4.57.63,4.77.87Z"/><path class="cls-5" d="M596.25,210c-.19,1.63.62,5.51-.71,6.43-.72.5-7.12.55-7.47.25-.4-.34-1.16-6.34-.83-6.67h9.01Z"/><path class="cls-5" d="M694.48,187.54c-.45,6.51-1.16,7.59-7.89,6.74-4.04-.51-2.75-5.98-1.7-6.66s8.81-1.2,9.59-.08Z"/><path class="cls-5" d="M462.75,435.75h-.75v-4.5c1.5.77.4,3.4.75,4.5Z"/><path class="cls-3" d="M639.75,597.75c-2.04-.28-5.44-.61-7.5-.75l.02-37.85c.15-2.83,4.86-3.65,6.36-1.9,2.88,3.36.13,34.1,1.12,40.5Z"/><path class="cls-6" d="M693,620.25c-.12.45.32,1.2-.49,1.55l-36.65,21.69c-1.52.19-.98-.06-1.11-1.1-.3-2.29,0-5.45,0-7.89l38.25-14.25Z"/><path class="cls-5" d="M363,598.5c-.69-2.43,2.17-.99,2.27-1.89.13-1.17-.55-2.41-.49-3.61.23-5.1-.16-36.72,1.29-37.94.38-.32,1.79.19,2.35-.09.84-.42.34-1.4,1.7-1.54,1.83-.19,4.67,3.11,4.84,4.99l.05,38.58c-.5.02-1-.03-1.5,0-.4-.36-.79-.74-1.08-1.18s-.56-.84-.56-1.23c0-8.26.19-16.49.54-24.75,1.04-17.33-5.7-16.6-4.54.2.36,8.42.56,16.82.55,25.25,0,.4-.27.81-.57,1.25s-.68.83-1.09,1.2c-1.28.22-2.5.35-3.75.75Z"/><path class="cls-6" d="M351,635.25c.13,2.32.23,4.47.75,6.75l-1.74-.12-27.51-16.37c9.61,2.84,19.01,6.39,28.5,9.75Z"/><rect class="cls-5" x="693" y="597" width="1.49" height="4.49"/><path class="cls-6" d="M321,625.5c-1.07-.29-1.15-.59-1.5-.75l1.5.75Z"/><path class="cls-2" d="M642.75,660c.14,2.37-.24,2.71-.75,4.5-.96,2.79-.96,5.04,0,6.75,0,.5,0,1,0,1.5-.17.95-.31,1.76-.81.94-1.02,15.59-1.5,31.03-1.44,46.31-.02,1.5.05,3.01,0,4.5l-.75,2.25c.06.74-.03,1.5,0,2.25l-2.92,5.58c.89,8.19,1.83,17.47-.11,25.51-.77,3.17-8.19,2.56-10.04.35h-177.86c-3.21,3.44-2.16.31-3.03.04-.97-.3-5.26,2.11-5.43,2.37-.57.86.17,3.85-.11,5.15-4.72.98-2.61-2.41-3-6l-1.87,1.51c-.7-.03-.02-1.32-.86-1.53-4.49-1.14-14.16.75-19.44.08-1.44-.18-.78-1.59-2.15-1.62l-42.43.06c-.18-7.22-.17-14.99-.74-22.17-.18-2.3.37-1.93-2.25-1.84-.12-2.48.12-5.02,0-7.5.57-16.67-1.03-35.74-2.46-51.16l-.54-1.34c-.14-2.98.13-6.02,0-9,.71-2.61.46-4.86-.75-6.75-.05-1.25.05-2.5,0-3.75,1.31-2.66,1.23-7.12,0-8.25-.1-2.45-.67-4.62-.75-6.75l.52-1.36c.25-5.2.41-14.38-.42-21.14-.26-3.49.85-6.06,4.03-7.75,1.28-.68,14.3-1.44,16.3-1.5,16.09-.48,32.44-.6,48.32.46,44.73-2.92,91.87-1.93,136.97.36,21.06-2.21,41.88-2.38,62.46-.5,7.6-3.44,14.35,3.78,13.13,11.61-.95,12.52-1.22,25.13-.81,37.81Z"/><path class="cls-3" d="M356.25,745.5c-.46-.48-1.17-.95-1.5-1.5-3-4.92-11.14-13.23-16.72-15.17-1.46-.51-2.72-.8-4.28-.58.26-11.17,2.29-17.21,5.63-27.75l13.12-34.5,2.29,34.09c.18,15.19,1.61,30.6,1.47,45.41Z"/><path class="cls-5" d="M644.25,622.5c-.36.64-.36,1.14,0,1.5-.1,4.53-.56,8.97-.75,13.5-.36.64-.36,1.14,0,1.5-.34,6.99-.83,14-.75,21,0-.14-.64-.6-.69-1.19-.93-10.78.48-21.6.69-32.19.06-2.87.57-9.18-.7-11.29-.74-1.23-6.76-4.63-8.06-4.68-1.04-.04-1.96,1.39-3.6,1.43-2.89.07-8.4-1.76-13.51-1.57-13.68.51-26.53-.33-39.72,1.53-12.43,1.75-31.01-1.31-44.32-1.57s-28.22-.03-41.94,0-27.5.6-40.58.07c-7.22-.3-10.66.59-17.17,1.5-6.26.88-13.43-1.7-19.58-.83-13.45,1.91-23.75-.4-36.51.92-3.01.31-4.43.51-7.63.69-10.13.55-5.02,8.17-5.01,12.97,0,3.92-.52,9.37-.69,13.62-.06,1.44.77,3.01-1.5,2.59-.25-6.84-1.6-18.82-.57-24.94.75-4.46,4.66-8.28,9.18-8.82h264.03c8.75,2.15,9.05,6.52,9.36,14.27Z"/><path class="cls-3" d="M630,764.25c2.57.28,5.07.53,7.5.75v3c-.65.29-1.4.54-2.25.75-64.49.13-129.02.21-193.5-.37-1.86-2.02-2.23-4.1,1.09-4.17,62.39.07,124.78.04,187.16.04Z"/><path class="cls-3" d="M650.25,742.5c.42-16.67,1.06-33.28,1.47-49.91,1.73-3.8-.21-20.08,1.54-22.1.24-.28,1.87-.21,1.67.95,3.92,11.73,8.1,23.37,12.21,35.04,3.48,9.89,4.57,9.58,4.86,21.01-3.98.32-7.5,2.5-10.75,4.63l-11,10.37Z"/><path class="cls-3" d="M366.75,597.75c.96-12.07-1.29-26.06,0-37.89.61-5.59,6.15-5.59,6.75,0,1.25,11.61-.93,25.3,0,37.14-1.66.1-5.16.48-6.75.75Z"/><path class="cls-3" d="M368.25,764.25h56.25c.06,2.98.58,4.14-2.59,4.54-15.18,1.88-39,0-55.16-.04,3.66-1.2,1.62-1.48,1.5-4.5Z"/><path class="cls-3" d="M360,768.75c-4.99-.03-10.01.03-15,0l6.38-5.23,4.87-7.51c.02.12,1.1.87,1.33,2.01.74,3.64,1.23,7.21,2.42,10.74Z"/><path class="cls-5" d="M363.75,676.5c1.64-.36,1.83.78,2.05,2.04,1.49,8.39.54,19.02.92,27.62.33,7.53,3.17,15.49.03,22.84-.87-17.52-2.2-35.11-3-52.5Z"/><path class="cls-5" d="M642,672.75c-.2,15.74-2.02,31.51-2.25,47.25-1.24-.78-.75-2.85-.76-4.11-.15-13.86,1.04-27.13,1.51-40.55.05-1.44-.76-3.01,1.5-2.59Z"/><path class="cls-3" d="M657.75,767.25c.06.43.08.77-.04.84-1.64.87-8.5.23-10.46-.09.46-3.01.63-7.86,3-9.75.16.42,4.55,7.14,4.9,7.52.11.12,2.02,1.13,2.6,1.48Z"/><path class="cls-5" d="M363,648.75c.69.07,1.31-.4,1.51.47.17.72.22,7.47-.02,7.78-.09.12-1.08-.07-1.5,0-.12-2.73.11-5.52,0-8.25Z"/><path class="cls-6" d="M657.75,767.25c.79.49,2.38.37,2.25,1.49-4.24.04-8.51-.02-12.75,0v-.75c3.32-.4,7.63.93,10.5-.75Z"/><path class="cls-5" d="M363,660.75c2.43-.9,1.92,5.23.75,6.75-.1-2.3-.65-4.35-.75-6.75Z"/><path class="cls-5" d="M642,671.25c-3.43.43-.58-4.74,0-6.75,0,2.25,0,4.5,0,6.75Z"/><path class="cls-6" d="M637.5,768c2.49-.1,6.34-.54,8.25.75-3.49.02-7.01,0-10.5,0,.36-.98,1.43-.72,2.25-.75Z"/><path class="cls-6" d="M637.5,764.25c0,.25,0,.5,0,.75-2.36-.32-5.72.85-7.5-.75h7.5Z"/><path class="cls-5" d="M639.75,724.5c-.03.82.23,1.89-.75,2.25-.05-.64-2.3-2.62.75-2.25Z"/><path class="cls-6" d="M644.25,624l-.75-.38.75-1.12c.03.77.02.8,0,1.5Z"/><path class="cls-6" d="M643.5,639l-.75-.38.75-1.12c-.01.29.04.78,0,1.5Z"/><path class="cls-3" d="M363,768.75h-1.5c.41,0,1.05,0,1.5,0Z"/><path class="cls-3" d="M671.25,783h-323.62c-1.17,0-2.45-4.5,1.09-5.66l321.77.05c3.15,2.14,1.93,2.78.77,5.61Z"/><path class="cls-3" d="M252.38,783c-2.08-.65-2.27-4.49.39-5.61,1.53-.64,16.44-.76,18.2-.24,3,.89,2.25,5.85.9,5.85-3.84,0-17.02.77-19.5,0Z"/><path class="cls-6" d="M294.57,741.15c6.56-.55,5.68,10.66,2.44,12.23-7.88,3.81-9.79-11.61-2.44-12.23Z"/><path class="cls-6" d="M713.78,742.73c2.9,2.33,2.34,8.97-1.3,10.64-8.81,4.04-7.77-17.93,1.3-10.64Z"/><path class="cls-3" d="M435,764.25c2.03,8.52-7.54,4.39-4.93.71l4.93-.71Z"/><rect class="cls-2" x="352.5" y="744" width="2.25" height="4.51"/><path class="cls-1" d="M696.75,339l14.82-6.17c.97-.86.99-4.65,1.81-6.09.59-1.03,2.17-1.18,2.17-1.66,0-.73-5.38-12.27-6.16-13.34-2.38-3.25-6.73-3.12-4.81-8.78,1.53-4.51,8.01-3.02,9.63,1.03.97,2.44-1.29,3.25-.84,5.96.18,1.11,5.46,12.04,6.05,12.39.77.46,3.18.28,4.75.89,2.29.89,3.63,2.84,5.81,3.67,4.47-2.78,12.05-3.33,16.27-5.88,2.24-1.45,3.43,2.53,1.5,3.75-3.39,2.34-13.85,4.08-16.5,6.37-1.7,1.47-.08,7.92-5.85,9.88-7.95,2.7-9.93-3.34-12.49-3.47-1.16-.06-14.61,5.2-15.41,5.97-2.13-.18-2.32-3.28-.75-4.5Z"/><path class="cls-3" d="M747.75,324.75c-.74-1.12-.4-2.82-1.5-3.75,2.78-1.68,4.14-7.43,8.97-3.35,6.48,5.47-3.35,13.37-7.47,7.1Z"/><path class="cls-3" d="M696.75,339c.59,1.15.71,3.17.75,4.5-.16.16-.02,1.41-1.16,2.18-2.8,1.88-7.78,1.12-8.56-2.58-1.28-6.09,6.68-8.53,8.98-4.1Z"/><path class="cls-3" d="M693.38,316.09c5.95.04,6.89,8.99.69,9.4s-6.61-9.44-.69-9.4Z"/><path class="cls-3" d="M706.69,354.2c3.81-3.64,11.66,3.51,6.24,7.35-5.21,3.7-10.2-3.57-6.24-7.35Z"/><path class="cls-3" d="M732.52,301.65c5.84-1.75,9.65,4.59,4.65,7.67-6.41,3.94-9.2-6.31-4.65-7.67Z"/><path class="cls-3" d="M749.05,339.88c4.14-1.18,7.69,3.08,5.06,6.59-5.34,7.13-11.7-4.7-5.06-6.59Z"/><path class="cls-3" d="M732.5,354.12c6.13-2.11,8.99,7,3.26,8.58s-6.81-7.36-3.26-8.58Z"/><path class="cls-1" d="M746.25,430.12c.14-.47,1.18-1.25,1.83-1.13,13.6,8.11,26.99,16.99,40.22,25.83,3.11,3.65-5.61,5.65-5.33,7.51,2.62,6.49,8.85,11.25,10.54,18.03-.12,1.6-26.52-3.69-28.9-3.76-4.05,1.72-12.43,11.55-16.45,10.94-.64-.1-1.9-.68-1.9-1.17v-56.25Z"/><path class="cls-1" d="M271.12,325.5l12.37-18.75c-6.91,1.41-13.89,2.85-20.99,2.99l5.43-9.56,31.31-7.69c.21,3.77,1,7.6,1.87,11.26.78,3.29,4.28,12.98,4.12,15.32-.14,2.12-5.77,9.47-5.77,10.54,0,1.25,5.79,7.67,5.81,11.24l-6.1,24.33-28.61-6.15-2.83-1.67-5.25-8.62,20.25,2.61c-2.35-6.75-7.26-12.81-11.63-18.37h-22.88c1.3,5.27,10.31,10.93,11.99,15.39.62,1.64-1.09.97-1.89,1.08-1.8.25-5.23,1.03-6.69.8-1.64-.26-7.75-6.89-9.44-8.62-1.37-1.4-10.51-11.22-10.51-12.02,5.24-6.26,11.17-12.43,16.95-18.36.85-.88.95-2.27,1.08-2.27h11.25c-.5,1.95-2.48,3.99-3.77,5.61-2.72,3.41-7.04,6.75-8.23,10.89h22.12Z"/><path class="cls-1" d="M351.38,209.25c-.2,0-.71.56-1.36.53-5.32-.27-6.48-7.36-2.24-8.64,3.08-.93,13.1-.07,17.14-.11,2.28-.02,4.37-1.48,6.61-.1,3.57,13.04,4.76,25.31,1.02,38.47-2.46,8.67-4.89,10.22-13.75,11.75-4.32.75-15.1,2.96-14.35-3.94.89-8.12,18.21-.92,18.57-9.47-5.63-.61-15.41-1.19-18.64-6.49-2.76-4.53-2.73-15.13,4.61-12.87,3.96,1.22,2.06,7.34,2.9,8.74s11.1,2.53,13.37,3.12c0-7.02.31-14.05-.75-21-4.36-.07-8.76.1-13.12,0Z"/><path class="cls-1" d="M263.8,452.42c12.83-2.6,15.51,15.81,4.13,17.67-12.16,1.98-15.45-15.38-4.13-17.67Z"/><path class="cls-1" d="M204.75,457.51c.29.38,7.11-1.97,6,4.83-.66,4.01-5.1,2.06-5.93,2.73-.58.47-.09,5.77-2.85,6.56-6.84,1.98-5.02-6.19-5.47-6.64-.58-.57-7.18,1.53-6.73-4.06.43-5.33,6.15-2.83,6.73-3.43.66-.69-1.68-7.89,4.84-6.76,4.17.72,2.89,6.07,3.41,6.76Z"/><path class="cls-1" d="M240.38,456c.22,0,.9-.64,2.02-.6,6.87.29,4.85,7.35,3.23,7.35h-22.5c-2.22,0-3.25-6.75-.75-6.75,6,0,12,0,18,0Z"/><path class="cls-3" d="M248.04,588.17c15.9-3.26,18.55,23.72-.12,20.78-10.15-1.6-11-18.5.12-20.78Z"/><path class="cls-3" d="M235.75,565.25c-9.34-9.26,5.9-23.6,14.75-13.63,9.03,10.17-5.65,22.64-14.75,13.63Z"/><path class="cls-2" d="M471,247.5c7.64-3.88,6.85-4.53,16.07-6.06,2.34-.39,4.17-1.74,6.84-1.52,1.43.12,1.13,1.51,1.47,1.59,2.16.53,1.6-1.2,2.43-1.46,5.23-1.68,21.68.31,27.42,1.46.36.07,1.1,1.71,2.32,2.29,2.68,1.28,4.1-.48,3.46,3.7,2.17-.45,6.13-1.09,8.05.2,1.05.71,1.23,3.79,4.71,2.8l-.76,1.49c1.9-.68,2.12,1.18,2.83,1.47s1.89-.18,2.98.27c2.43,1,1.44,5.37,1.74,5.72.51.6,3.48.02,3.61.15.79.77.71,4.21.88,4.37.43.4,2.87-.41,3.63.13.33.24.36,1.67.85,2.35,5.95,8.25,9.76,15.48,11.15,25.78.47,3.5-.4,7.18.92,10.7,3.51-.27,7.05.92,10.42.08-1.26,3.72-.66,5.92-.7,9.34-.3,22.83-.36,45.81.62,68.57-.84,1.35-15.39-1.08-17.75.26-2.15,1.22-1.42,7.03-1.66,7.33-1.29,1.64-1.6-2.98-2.99-1.49-.29.31,1.05,5.41-.06,8.42-.27.74-1.35.71-1.67,1.51-1.6,3.93-3.01,7.86-6.02,10.87-.13.13-2.93,1.72-3.11,1.75-3.89.58-3.5-1.5-3.78-1.57-2.18-.57-1.68,1.34-2.38,1.5-2.19.5-7.71-.66-9.09.17-1.09.65-3.66,5.26-5.15,6.08.46,2.44-2.97,5.88-3.13,7.02-.07.47,2.07,7.62,2.44,9.17.27,1.15-1.22,1.84,1.19,1.57-3.69.99-7.98,3.94-12.6,5.03-16.33,3.85-29.96.65-43.9-8.16-2.61-1.65-5.6-5.62-8.76-5.87.18-1.72-1.24-5.9-2.2-7.02-.64-.74-1.73-.19-2.36-.96-1.18-1.43-1.82-4.41-2.36-5.33-.17-.28-2.6-1.6-3.58-2.82-.67-.84-2.73-4.39-2.98-5.27-.69-2.38,3.82.36,2.98-2.6-1.2-.23-3.92.58-4.58-.44-.24-.37-2.83-7.74-2.88-8.29-.16-1.68,1.32-7.24.73-7.78-.19-.18-2.29.19-3.2-.03-.84-.2-1.61-2.82-3.15-3.02-1.41-.18-6.15-.22-7.39.06-.53.12-.38,2.28-3.04,1.49-.57-.17-.3-2.46-4.22-.76l-.75-78.74c1.94-.89,1.28,1.52,1.87,1.52,1.12,0,1.68-1.26,3.02-1.5,4.13-.76,6.81,2,7.81-4.19.64-3.98-2.72-10.76,3.31-9.34.46.11.77,2.95,1.99,1.5s-1.76-4.98-1.49-6.34c.06-.3.77-1.4,1.47-.69.78.8,1.56,2.05,2.67,2.53.38.17,4.14-5.16,7.12-3.01.94-2.84-1.26-2.95-1.34-3.13-.2-.42,3.1-7.87,3.54-8.39.38-.44,4.56-3.3,5.26-4.02,1.35-1.39,6.34-7.72,7.72-8.24,1.24-.46,3.16.02,3.54-.28.29-.23-.09-1.63.03-2.19,1.92-.61,3.51-.42,4.69-.8.25-.08,3.99-2.91,4.07-3.15.53-1.65.46-5.35-1.47-6.07-.63-.23-6.98.09-7.3.27-.15.08-.43,3.08-2.25,1.5-1.94-1.69,2.07-1.41,2.25-1.5Z"/><path class="cls-3" d="M471,257.25c-7.55,2.41-14.12,8.91-18.61,15.51-1.36,2-5,10.3-5.51,10.61-4.08,2.48-4.93-2.67-3.55-6.17,3.7-9.38,13.62-19.19,22.19-24.3,2.61-1.56,14.88-8.81,12.13-.63-.72,2.15-6.06,2.26-6.65,4.99Z"/><path class="cls-2" d="M441,277.5c.17,2.36-.86,5.45-2.99,6.75-.24-1.37.1-2.41.45-3.69.22-.82,1.04-3.69,2.54-3.06Z"/><path class="cls-2" d="M533.25,244.51c.51.26-.44,1.27-1.49.73-.51-.26.44-1.27,1.49-.73Z"/><path class="cls-2" d="M603,328.5c2.76.59,1.08-3.6,1.53-5.46.09-.39.95-.53,1.4-1.19.65-.95-.56-3.21,3.09-.32,2.48,12.78,1.21,25.85,1.47,38.83-2.25,2.1-4.08,10.35-6.14,11.48-1.02.56-2.8-.22-3.5.25-.33.22-.37,1.69-.84,2.37-.34.49-1.27.38-1.48,1.08-.13.44-.74,4.8-.68,5.04.21.85,1.72.9,1.98,1.31.91,1.46-.35,4.06-.3,5.61.2,5.31.48,9.76-.38,14.78-.22,1.3-2.26,13.05-5.15,10.22-.25-.25.29-3.64-.11-4.8s-2.11-.98-2.17-1.65c-.02-.25.68-4.59.8-5.04.18-.65,1.47-.51,1.49-.96.13-2.54-1.27-6.93-.82-10.49.18-1.42,1.39-.69,1.62-2.17.59-3.82-1.15-3.12-1.56-3.93-2.06-4.08.49-7.36.05-11.13-.21-1.8-1.6-2.84-1.63-4.47s1.37-3.61,1.61-5.97c.74-7.3.8-25.08-.02-32.31-.21-1.89-1.74-3.81-1.56-5.13.06-.44,1.21-.39,1.47-1.05,2-5.1-2.29-5.26-2.19-8.04.02-.66,2.37-.2,3.46-1.05,1.7-1.33.11-4.13,2.18-3.84,1.41.19,3.15,1.97,3.38,3.38.41,2.53-3.74-.41-3.01,2.63h9s-1.12,2.25-1.12,2.25l-1.88-1.5v11.25Z"/><path class="cls-2" d="M590.99,408c.22.21,1.17,3.8,1.58,4.67.28.61,1.43.61,1.47,1.03.1,1.1-2.44,7.19-2.87,3.89-.11-.86.4-1.72-.2-2.99-.38-.81-1.88-.75-1.99-2.54-.03-.55.38-5.59,2.01-4.05Z"/><path class="cls-3" d="M646.5,214.5v26.25c-5.31-.06-18.49-6.94-18.82-12.37-.47-7.6,12.37-13.58,18.82-13.88Z"/><rect class="cls-3" x="331.5" y="402" width="22.5" height="25.5"/><path class="cls-2" d="M789,630h-63l1.51-1.12-3.01-.37v-72h64.13c.08,0,1.12,1.05,1.12,1.12v70.5c0,.25-.99,1.14-.75,1.88Z"/><path class="cls-2" d="M748.31,672.23c.17.09.06.99.74,1.25.72.28,2.21-.17,2.45.02,2.47,1.95-10.56,14.29-11.42,16.29-6.38.72-4.27-4.69-2.04-8.21.99-1.57,4.73-4.73,5.99-6.17,1.04-1.19,1.04-4.97,4.28-3.17Z"/><path class="cls-2" d="M693,189c1.22,5.02-3.85,2.44-7.5,2.99-.03-4.66,4.07-2.66,7.5-2.99Z"/><path class="cls-1" d="M477,714c-.11-.07-.24-1.41-1.08-2.27-4.49-4.6-15.36-13.81-18.05-18.74-1.46-2.68.68-2.05,1.48-2.97,5.49-6.27,11.82-11.95,17.11-18.55,1.02-.85,8.85-.46,10.67-.23.78.1,1.61-.18,1.1,1.11-.6,1.53-13.7,15.34-12.74,16.13l24.6-.9,12.9-20.09-22.5,4.49c-.76-.76,4.31-9.24,5.21-10.15,3.36-3.4,26.57-6.04,32.27-9.34l6.62,26.07c.17,1.96-4.3,9.96-5.69,11.96-.35.5-.46,2.13-1.66.98s-4.63-17.5-6.38-20.24l-13.01,21.25,13.01,20.74c2.83-5.12,2.97-14.22,5.78-18.96.41-.69,1.19-1.96,2.08-1.28.54.42,5.92,11.67,5.94,12.36l-5.98,25.83c-1.04.27-2.08.02-3.12-.14-5.95-.91-21.61-4.63-27.01-6.75-1.06-.42-2.11-.69-2.82-1.68l-5.99-10.12,22.49,4.49-13.12-21h-24.38c3.29,6.5,11.57,10.86,13.5,18-1.95-.43-10.35.57-11.25,0Z"/><path class="cls-3" d="M430.31,627.2c3.96,3.79-.97,9.84-5.49,6.6-4.79-3.43,1.62-10.3,5.49-6.6Z"/><path class="cls-3" d="M393.56,627.19c3.1,2.68-.26,10.37-5.49,6.62-4.92-3.52,1.48-10.08,5.49-6.62Z"/><path class="cls-5" d="M367.5,662.25c.92-1.22,1.36.01,1.5,1.11.62,4.87.28,11.14.75,16.14h-2.25v-17.25Z"/><path class="cls-5" d="M369,688.5l1.11-5.24c1.86,1.38,1.83,5.36-1.11,5.24Z"/><rect class="cls-5" x="633" y="754.5" width="1.49" height="3.74"/><rect class="cls-5" x="367.5" y="652.5" width="1.49" height="2.24"/><path class="cls-5" d="M288,316.5c.98-1.51,1.65-4.09,2.83-5.77.45-.65-.13-1.39,1.66-.98.64,7.1,6.9,14.79,5.67,21.78-.91,5.14-4.82,11.75-5.67,17.22-.91.71-12.66-17.99-12.76-19.18-.21-2.47,6.66-10.58,8.27-13.07q1.18.73,0,0Z"/><path class="cls-1" d="M561.75,337.5v20.62c0,12.03-12.26,35.47-22.73,41.77-11.02,6.64-10.23.99-17.42-4.63-10.32-8.07-25.61-8-35.98-.02-7.54,5.8-6.85,11.71-18.63,4.38-9.62-5.99-18-21.78-20.69-32.56-4.15-16.65-2.57-36.01-.05-52.82.68-.68,5.44,5.21,6.35,6.02,8.58,7.65,19.12,13.85,30.37,16.13,2.94.6,6,1.13,9.03,1.09-11.23-10-19.8-23.82-21.74-38.99,20.6,29.25,56.44,41.68,91.49,39Z"/><path class="cls-1" d="M509.02,413.02c-5.88,6.36-18.29-1.07-12.53-9.16,5.52-7.74,19.87,1.23,12.53,9.16Z"/><path class="cls-5" d="M597,403.5c.82.82-.67,2.31-1.49,1.49s.67-2.31,1.49-1.49Z"/><path class="cls-1" d="M773.25,586.5c.07.89,2.27,2.3,2.1,4.01-.13,1.28-2.05,2.71-2.1,3.49,0,.41-.02.72-.06.72-11.16.42-23.47.59-34.44-.72-2.8-3.14-1.37-5.08.75-7.5-.15-.59,0-.74.5-.76,10.6-.39,22.13-.27,32.74.06.17,0,.34.31.5.69Z"/><path class="cls-1" d="M773.25,605.25c2.52,3.3,3.27,5.54-1.29,7.34-9.52-.43-20.55,1.12-29.89.21-5.11-.5-5.88-3.4-3.33-7.55h34.5Z"/><path class="cls-1" d="M773.62,568.5c1.2.37,2.78,5.89-.92,6.55-5.9,1.04-25.06.87-31.38.25s-3.81-6.79-3.33-6.79h35.62Z"/><path class="cls-5" d="M773.25,594c-.01.14.99.84.75,1.49-10.08-.65-21.2.88-31.15.04-1.91-.16-2.73-.01-4.09-1.54h34.5Z"/><path class="cls-5" d="M739.5,586.5c.11-.12-.25-1.09.1-1.37,1.33-1.09,30.08.55,34.4-.12.25.65-.76,1.36-.75,1.49h-33.75Z"/><rect class="cls-5" x="739.5" y="567" width="31.5" height=".75"/><path class="cls-2" d="M288,316.5c.59-1.04,3.41-.68,4.34.18-.09,3.21,3.32,6.57,3.79,9.17.29,1.61-.75,9.66-1.53,10.74-.36.5-1.8.48-2.37.98-1.1.98-1.67,2.94-3.09,2.96-2.17.03-1.82-2.82-2.63-4.01-.34-.5-1.23-.6-1.48-1.08-4.47-8.42-1.65-7.79,1.87-14.44.73-1.38.78-3.93,1.12-4.51Z"/></g></svg>